<svg width="100" height="22" viewBox="0 0 100 22" fill="none" xmlns="http://www.w3.org/2000/svg">
<path d="M19.9053 0.115684L11.0528 12.301L2.20033 0.115684H0V21.0287H5.47525V12.8152L11.04 20.6816H11.0784L16.6304 12.8152V21.0287H22.1057V0.115684H19.9053Z" fill="#330B86"/>
<path d="M30.5232 21.0287H35.9601V12.0825L42.3308 0.308489H36.1136L33.2481 6.31118L30.3697 0.308489H24.1653L30.5232 12.0825V21.0287Z" fill="#330B86"/>
<path d="M50.8251 21.3115C54.9571 21.3115 58.6158 18.8564 58.6158 14.9103C58.6158 11.8511 56.4795 9.87166 53.2557 8.50917C51.0298 7.57084 49.5714 7.26235 49.5714 6.31118C49.5714 5.60422 50.3774 5.02581 51.5031 5.02581C52.4882 5.02581 54.0745 5.50139 54.6885 6.59396L57.8483 3.53477C57.0423 1.49103 54.5862 0 51.4392 0C47.5246 0 44.1346 2.55789 44.1346 6.14408C44.1346 9.26754 46.3733 10.9899 48.983 12.1211C51.0042 13.0208 53.115 13.9591 53.115 15.026C53.115 15.8744 51.9765 16.2985 50.8123 16.2985C49.0853 16.2985 47.4862 15.5273 46.6291 14.2548L43.3158 17.5196C44.3521 19.8076 47.4351 21.3115 50.8251 21.3115Z" fill="#330B86"/>
<path d="M61.1232 21.0287H66.5984V0.308489H61.1232V21.0287Z" fill="#330B86"/>
<path d="M84.3034 0.308489H68.9267V5.44998H73.8774V21.0287H79.3655V5.44998H84.3034V0.308489Z" fill="#330B86"/>
<path d="M100 5.42427V0.308489H86.6317V21.0287H100V15.8744H92.043V12.9051H98.5928V8.31636H92.043V5.42427H100Z" fill="#330B86"/>
</svg>
