<svg width="24" height="30" viewBox="0 0 24 30" fill="none" xmlns="http://www.w3.org/2000/svg">
<path fill-rule="evenodd" clip-rule="evenodd" d="M21 20.625V13.125C21 8.52 18.555 4.665 14.25 3.645V2.625C14.25 1.38 13.245 0.375 12 0.375C10.755 0.375 9.75 1.38 9.75 2.625V3.645C5.46 4.665 3 8.505 3 13.125V20.625L0 23.625V25.125H24V23.625L21 20.625ZM12 29.625C13.65 29.625 15 28.275 15 26.625H9C9 28.275 10.35 29.625 12 29.625ZM6 22.125H18V13.125C18 9.405 15.735 6.375 12 6.375C8.265 6.375 6 9.405 6 13.125V22.125Z" fill="black" fill-opacity="0.54"/>
</svg>
