<svg width="30" height="28" viewBox="0 0 30 28" fill="none" xmlns="http://www.w3.org/2000/svg">
<path fill-rule="evenodd" clip-rule="evenodd" d="M27 6.5H21V3.5L18 0.5H12L9 3.5V6.5H3C1.35 6.5 0 7.85 0 9.5V17C0 18.125 0.6 19.07 1.5 19.595V24.5C1.5 26.165 2.835 27.5 4.5 27.5H25.5C27.165 27.5 28.5 26.165 28.5 24.5V19.58C29.385 19.055 30 18.095 30 17V9.5C30 7.85 28.65 6.5 27 6.5ZM12 3.5H18V6.5H12V3.5ZM27 9.5H3V17H10.5V12.5H19.5V17H27V9.5ZM16.5 18.5H13.5V15.5H16.5V18.5ZM4.5 24.5H25.5V20H19.5V21.5H10.5V20H4.5V24.5Z" fill-opacity="0.54"/>
</svg>
