<svg width="24" height="24" viewBox="0 0 24 24" fill="none" xmlns="http://www.w3.org/2000/svg">
<path fill-rule="evenodd" clip-rule="evenodd" d="M0.330078 0.330078V4.57508C10.8751 4.57508 19.4251 13.1251 19.4251 23.6701H23.6701C23.6701 10.7851 13.2151 0.330078 0.330078 0.330078ZM3.60008 17.1302C1.79411 17.1302 0.330078 18.5942 0.330078 20.4002C0.330078 22.2061 1.79411 23.6702 3.60008 23.6702C5.40605 23.6702 6.87008 22.2061 6.87008 20.4002C6.87008 18.5942 5.40605 17.1302 3.60008 17.1302ZM0.330078 13.0652V8.82016C8.53508 8.82016 15.1801 15.4652 15.1801 23.6702H10.9351C10.9351 17.8202 6.18008 13.0652 0.330078 13.0652Z" fill="#673AB7"/>
</svg>
